<svg width="10" height="12" viewBox="0 0 10 12" fill="none" xmlns="http://www.w3.org/2000/svg">
<path d="M4.2508 1.44529C4.2508 1.07356 4.25373 0.704635 4.24948 0.335868C4.24757 0.174952 4.31014 0.0684543 4.44861 0.0106056C4.46795 0.00249741 4.49051 0.00124999 4.51176 0.00109407C4.80964 0.000470362 5.10752 0.0018737 5.4054 2.58259e-06C5.51427 -0.000621124 5.66123 0.111802 5.66548 0.254787C5.67091 0.433946 5.67061 0.613106 5.67134 0.792421C5.67222 0.989356 5.67149 1.18614 5.67149 1.37637C5.88219 1.42424 6.08586 1.46197 6.28528 1.51732C6.78829 1.65672 7.24647 1.89435 7.65029 2.24628C7.7618 2.34342 7.79887 2.49467 7.73132 2.63033C7.56062 2.97368 7.38772 3.31609 7.21145 3.65632C7.13468 3.80445 6.94068 3.84234 6.8113 3.74349C6.40733 3.43475 5.97069 3.19977 5.47618 3.11401C5.10767 3.05008 4.74136 3.06739 4.3982 3.24873C4.22413 3.34073 4.07863 3.47062 4.00185 3.66739C3.88757 3.96038 3.9453 4.26911 4.15937 4.4885C4.39102 4.72567 4.6744 4.86772 4.96569 4.99511C5.44189 5.20343 5.92439 5.39584 6.39488 5.61741C6.82947 5.82214 7.2286 6.09096 7.5426 6.48265C7.83403 6.84611 7.97162 7.27132 7.9958 7.743C8.03477 8.50595 7.80238 9.16536 7.31578 9.72187C7.02859 10.0502 6.67767 10.2827 6.28118 10.4312C6.10344 10.4978 5.9175 10.5403 5.73391 10.588C5.68189 10.6016 5.66988 10.6262 5.67017 10.6788C5.67208 11.0062 5.66929 11.3337 5.67193 11.661C5.67325 11.8191 5.61567 11.9313 5.47266 11.9856C5.44863 11.9947 5.42152 11.9978 5.39573 11.9978C5.11001 11.9986 4.82429 11.9943 4.53857 12C4.38677 12.0029 4.24699 11.8654 4.24933 11.6918C4.25388 11.349 4.24933 11.0059 4.25182 10.6629C4.25226 10.6024 4.2379 10.5806 4.17827 10.5695C3.72698 10.4856 3.30059 10.3212 2.89824 10.0905C2.61222 9.92644 2.34628 9.72951 2.10965 9.49032C1.97822 9.35747 1.96386 9.21058 2.07243 9.05481C2.27727 8.76105 2.48314 8.46806 2.6893 8.17539C2.82483 7.98297 2.96886 7.96177 3.14513 8.10771C3.41136 8.32819 3.69547 8.51765 4.00435 8.66328C4.41153 8.85538 4.83352 8.96094 5.2813 8.89421C5.59222 8.8479 5.85992 8.71598 6.03985 8.42643C6.25993 8.07232 6.1978 7.67174 5.88307 7.41181C5.67926 7.24341 5.44936 7.12429 5.2136 7.01872C4.74356 6.80807 4.26911 6.60879 3.80141 6.39252C3.47891 6.24346 3.17839 6.04933 2.90776 5.80827C2.5246 5.46679 2.25192 5.04532 2.15815 4.51813C2.01192 3.69468 2.19126 2.95886 2.73281 2.33828C3.05971 1.96359 3.46323 1.71395 3.91628 1.55256C4.02413 1.51421 4.13402 1.48255 4.25065 1.44544L4.2508 1.44529Z" fill="#394451"/>
</svg>
