<svg width="27" height="27" viewBox="0 0 27 27" fill="none" xmlns="http://www.w3.org/2000/svg">
<path d="M11.8125 20.25C11.5904 20.2513 11.3702 20.2087 11.1646 20.1247C10.959 20.0408 10.772 19.917 10.6144 19.7606L5.55186 14.6981C5.2341 14.3826 5.05469 13.9538 5.05311 13.506C5.05153 13.0582 5.2279 12.6281 5.54342 12.3103C5.85895 11.9926 6.28778 11.8131 6.73558 11.8116C7.18338 11.81 7.61347 11.9864 7.93124 12.3019L11.6944 16.0819L18.9675 7.34063C19.1093 7.16999 19.2834 7.02896 19.4797 6.92559C19.676 6.82221 19.8908 6.75852 20.1117 6.73815C20.3327 6.71778 20.5555 6.74113 20.7674 6.80686C20.9793 6.87259 21.1762 6.97942 21.3469 7.12125C21.5175 7.26308 21.6585 7.43713 21.7619 7.63346C21.8653 7.82979 21.929 8.04456 21.9493 8.2655C21.9697 8.48645 21.9464 8.70924 21.8806 8.92117C21.8149 9.13309 21.7081 9.32999 21.5662 9.50063L13.1287 19.6256C12.9699 19.8214 12.7692 19.9791 12.5415 20.0872C12.3137 20.1952 12.0646 20.2509 11.8125 20.25Z" fill="#FF6138"/>
</svg>
